<?xml version="1.0" encoding="UTF-8" standalone="no"?>
<svg
   xmlns:dc="http://purl.org/dc/elements/1.1/"
   xmlns:cc="http://creativecommons.org/ns#"
   xmlns:rdf="http://www.w3.org/1999/02/22-rdf-syntax-ns#"
   xmlns:svg="http://www.w3.org/2000/svg"
   xmlns="http://www.w3.org/2000/svg"
   version="1.1"
   x="0px"
   y="0px"
   viewBox="0 0 289.8 435.6"
   style="enable-background:new 0 0 289.8 435.6;"
   xml:space="preserve"
   id="svg368"><metadata
   id="metadata374"><rdf:RDF><cc:Work
       rdf:about=""><dc:format>image/svg+xml</dc:format><dc:type
         rdf:resource="http://purl.org/dc/dcmitype/StillImage" /><dc:title></dc:title></cc:Work></rdf:RDF></metadata><defs
   id="defs372" />
<style
   type="text/css"
   id="style193">
	.st0{display:none;}
	.st1{display:inline;fill:rgb(63, 61, 86);}
	.st2{display:inline;fill:rgb(148, 38, 65);}
	.st3{display:inline;opacity:0.1;enable-background:new;}
	.st4{display:inline;fill:rgb(47, 46, 65);}
	.st5{display:inline;fill:rgb(160, 97, 106);}
	.st6{display:inline;fill:rgb(242, 242, 242);}
	.st7{display:inline;fill:rgb(255, 255, 255);}
	.st8{fill:rgb(63, 61, 86);stroke:rgb(63, 61, 86);stroke-miterlimit:10;}
	.st9{fill:rgb(148, 38, 65);}
	.st10{fill:rgb(63, 61, 86);}
	.st11{opacity:0.1;enable-background:new    ;}
</style>
<g
   id="a22a2120-1380-4139-914d-7a29ac562eef"
   class="st0">
	<title
   id="title195">wine_tasting</title>
	<ellipse
   class="st1"
   cx="95"
   cy="537.2"
   rx="463"
   ry="61"
   id="ellipse197" />
	<ellipse
   class="st2"
   cx="-329.5"
   cy="297.7"
   rx="22"
   ry="15"
   id="ellipse199" />
	<path
   class="st2"
   d="M-329.5,297.7c0,0,104.5,181.6,101.7,207.8"
   id="path201" />
	<path
   class="st1"
   d="M-260.8,310.2v106.2c-21.9-30.3-65.5-61.6-147.4-86.9l147.4,202.4v1.5c0,0,0.3-0.2,0.8-0.4l0.3,0.3   c0,0,0.2-0.3,0.6-0.8C-242,522.6-98,432.9-260.8,310.2z"
   id="path203" />
	<path
   class="st1"
   d="M283.4,110.3c-6.3-6.3-13.7-11.4-21.9-15.1V-60.9c0-3.8-3.1-6.9-6.9-6.9l0,0h-38.6c-3.8,0-6.9,3.1-6.9,6.9l0,0   V92.2c-28.6,9.5-48,36.3-48,66.5v334.8c0,16.9,13.7,30.7,30.7,30.7h82.8c16.9,0,30.5-13.7,30.5-30.5v0v-331   C305,143,297.2,124.2,283.4,110.3z"
   id="path205" />
	<rect
   x="161"
   y="207.8"
   class="st2"
   width="144"
   height="190.2"
   id="rect207" />
	<path
   class="st2"
   d="M264.6-57.1h-3.1v-3.8c0-3.8-3.1-6.9-6.9-6.9h0h-38.6c-3.8,0-6.9,3.1-6.9,6.9l0,0v3.8h-3.1v16h3.1v81.8h52.4   v-81.8h3.1V-57.1z"
   id="path209" />
	<polygon
   class="st1"
   points="423.5,419.7 533.5,367.7 545.5,353.7 550.5,359.7 537.5,371.7 437.5,435.7  "
   id="polygon211" />
	<circle
   class="st2"
   cx="479.5"
   cy="483.7"
   r="33"
   id="circle213" />
	<circle
   class="st3"
   cx="479.5"
   cy="483.7"
   r="33"
   id="circle215" />
	<circle
   class="st2"
   cx="392.5"
   cy="505.7"
   r="33"
   id="circle217" />
	<circle
   class="st3"
   cx="392.5"
   cy="505.7"
   r="33"
   id="circle219" />
	<circle
   class="st2"
   cx="323.5"
   cy="480.7"
   r="33"
   id="circle221" />
	<circle
   class="st2"
   cx="335"
   cy="459.2"
   r="33"
   id="circle223" />
	<circle
   class="st2"
   cx="329"
   cy="430.2"
   r="27"
   id="circle225" />
	<circle
   class="st2"
   cx="351"
   cy="480.2"
   r="27"
   id="circle227" />
	<circle
   class="st3"
   cx="351"
   cy="480.2"
   r="27"
   id="circle229" />
	<circle
   class="st2"
   cx="370"
   cy="419.2"
   r="24"
   id="circle231" />
	<circle
   class="st3"
   cx="370"
   cy="419.2"
   r="24"
   id="circle233" />
	<circle
   class="st2"
   cx="236"
   cy="519.2"
   r="24"
   id="circle235" />
	<circle
   class="st2"
   cx="272"
   cy="524.2"
   r="24"
   id="circle237" />
	<circle
   class="st2"
   cx="272"
   cy="502.2"
   r="24"
   id="circle239" />
	<circle
   class="st3"
   cx="272"
   cy="502.2"
   r="24"
   id="circle241" />
	<circle
   class="st2"
   cx="236"
   cy="483.2"
   r="24"
   id="circle243" />
	<circle
   class="st2"
   cx="292"
   cy="447.2"
   r="24"
   id="circle245" />
	<circle
   class="st3"
   cx="292"
   cy="447.2"
   r="24"
   id="circle247" />
	<path
   class="st2"
   d="M341.5,475.7c-2.1,0-4.3,0.2-6.4,0.6c-3.8-14.4-18.6-23-33-19.2c-2.5,0.7-4.9,1.7-7.2,3.1   c-3.9-12.7-17.3-19.8-30-15.9c-12.7,3.9-19.8,17.3-15.9,30c3.9,12.7,17.3,19.8,30,15.9c1.2-0.4,2.4-0.8,3.5-1.4   c0.8,3.9,2.5,7.6,4.9,10.8c-7.8,12.7-3.9,29.3,8.8,37.1c8.6,5.3,19.4,5.4,28,0.2c15.6,9.5,35.9,4.5,45.4-11   c9.5-15.6,4.5-35.9-11-45.4C353.5,477.4,347.6,475.7,341.5,475.7z"
   id="path249" />
	<circle
   class="st2"
   cx="314.5"
   cy="438.7"
   r="24"
   id="circle251" />
	<path
   class="st2"
   d="M512.5,405.7c-6.5,0-12.9,1.9-18.4,5.6c-5.9-10.3-16.8-16.6-28.6-16.6c-0.8,0-1.7,0-2.5,0.1   c12.2-13.5,11.1-34.4-2.4-46.6c-13.5-12.2-34.4-11.1-46.6,2.4c-2.8,3.1-5,6.8-6.5,10.8c-8.2-16.3-28-22.9-44.3-14.7   c-11.2,5.6-18.2,17-18.2,29.5c0,0.9,0,1.8,0.1,2.7c-14.8-2-28.4,8.3-30.4,23.1s8.3,28.4,23.1,30.4c2.8,0.4,5.7,0.3,8.5-0.2   c-13.5,12.2-14.5,33.1-2.3,46.6c12.2,13.5,33.1,14.5,46.6,2.3c1.1-1,2.2-2.1,3.2-3.3c4.4,11,14.3,18.9,26.1,20.5   c-6.8,16.9,1.4,36.1,18.3,42.9c16.9,6.8,36.1-1.4,42.9-18.3c6.8-16.9-1.4-36.1-18.3-42.9c-2.5-1-5.1-1.7-7.7-2.1   c2.4-5.9,3-12.3,1.8-18.5c9.2,2.5,19,0.9,27-4.5c9.1,15.8,29.2,21.3,45,12.2c15.8-9.1,21.3-29.2,12.2-45   C535.3,412.1,524.4,405.7,512.5,405.7z M360.8,424.6c4.5-4.5,7.2-10.5,7.7-16.8c3.1,0.9,6.3,1.4,9.6,1.4c0.5,0,0.9,0,1.4,0   c-1.3,5.4-1.2,11.1,0.4,16.5C373.7,423.5,367.1,423.1,360.8,424.6z"
   id="path253" />
	<path
   class="st4"
   d="M90.7,229.6l-7.4,173.7l-4.6,78.1c0,0,10.1,16.5-4.6,18.4s-42.3-2.8-38.6-11.9s6.4-9.2,6.4-9.2l3.7-88.2   L18.1,282l-34.9,116.7l-7.4,83.6c0,0,10.1,12.9,0,15.6s-36.8,2.8-35.8-5.5s4.6-8.3,4.6-8.3L-60,241.6l13.8-21.1L90.7,229.6z"
   id="path255" />
	<path
   class="st4"
   d="M70.5,494.2l3.7,23c0,0,21.1,44.1-8.3,44.1s-21.1-17.5-21.1-17.5l2.8-49.6H70.5z"
   id="path257" />
	<path
   class="st4"
   d="M-54.5,494.2l-3.7,23c0,0-21.1,44.1,8.3,44.1s21.1-17.5,21.1-17.5l-2.8-49.6H-54.5z"
   id="path259" />
	<path
   class="st5"
   d="M39.3-30.4c0,0,9.2,33.1,11,33.1S32.8,28.4,32.8,28.4L4.4,44L-5.8,1.7c0,0,9.2-23,7.4-34.9L39.3-30.4z"
   id="path261" />
	<circle
   class="st5"
   cx="24.6"
   cy="-51.6"
   r="34"
   id="circle263" />
	<path
   class="st1"
   d="M20,19.2L47.1-4.4l16,8l34.9,22.1c0,0-9.2,198.5-4.6,205.8c0,0-10.1,23-69.8,9.2S-51.7,225-51.7,225   l12.9-121.3l-15.6-76.3L-2-9.2l16.4,28.4H20z"
   id="path265" />
	<path
   class="st5"
   d="M121.1,96.4c0,0,13.8,43.2,3.7,47.8s-18.4,2.8-18.4,2.8l-15.6-37.7L121.1,96.4z"
   id="path267" />
	<path
   class="st5"
   d="M-70.1,89l-8.3,38.6v78.1c0,0,11.9,49.6,21.1,36.8s9-16.9,9-16.9l-11.8-18l5.5-73.5L-39.8,99L-70.1,89z"
   id="path269" />
	<path
   class="st4"
   d="M-7.6-85.6c0,0,11-23.9,32.2-18.4s33.1,13.8,34,22.1s-0.5,20.7-0.5,20.7s-2.3-17-17-13.3   c-14.7,3.7-37.7,0.9-37.7,0.9l-3.7,33.1c0,0-4.1-6-8.7-2.3S-22.3-78.2-7.6-85.6z"
   id="path271" />
	<path
   class="st1"
   d="M90.7,27.5l7.4-1.8c0,0,13.8,17.5,18.4,37.7s11,40.4,7.4,40.4s-36.8,12.9-36.8,12.9L90.7,27.5z"
   id="path273" />
	<path
   class="st1"
   d="M-33.3,25.6l-21.1,1.8c0,0-23.9,65.2-21.1,67.1s35.8,12.9,40.4,10.1S-33.3,25.6-33.3,25.6z"
   id="path275" />
	<path
   class="st2"
   d="M78.5,102.8c-8.8,5.8-16.1,10.2-21.7,13.3h0c-8.1-0.6-16.3-0.3-24.4,0.7c-5.7-3.2-13.4-7.8-22.9-14   c-0.1-0.1-0.2-0.1-0.3-0.2v0c-8.7-6-8.9-18.7-6.1-31.6c7.2-0.8,18.7-0.5,34.1,5.1c18.3,6.5,37.4,2.8,48.5-0.5   C87.6,86.9,86.5,97.5,78.5,102.8z"
   id="path277" />
	<path
   class="st6"
   d="M44,220.4c-16.7,0-34.5-2.5-34.5-7.3c0-4.5,15.7-6.9,30.5-7.2v-76.6c0-1.8-0.9-4.2-2.6-6.9   c-0.8-1.3-1.7-2.5-2.6-3.7c-0.8-0.4-1.7-0.9-2.6-1.4c-7.1-4-14.9-8.7-23-14c-0.1-0.1-0.2-0.1-0.3-0.2l-0.2-0.2   c-7.5-5.3-9.6-16.1-6.1-32C6.8,51.9,17.5,32.2,17.6,32l0.2-0.4l0.4,0.2c0.2,0.1,20.3,7.8,51.7,0l0.4-0.1l0.2,0.3   c0,0,1.6,2.9,3.8,7.5c4.4,9.3,10,23.1,12,35.9c2.2,13.7-0.3,23.1-7.4,27.8l0,0c-7.6,5-15,9.5-21.7,13.4l-0.1,0.1   c-1,0.5-1.9,1-2.7,1.5c-0.3,0.4-0.6,0.9-0.9,1.4c-0.4,0.6-0.8,1.3-1.1,2c-2.1,4.2-3.2,8.9-3.2,13.6l-0.5,70.8   c14.5,0.4,30,2.8,30,7.2C78.5,217.8,60.8,220.4,44,220.4z M9.7,102.3L9.7,102.3c8.1,5.4,15.8,10.1,22.9,14c1,0.5,1.9,1,2.7,1.5   l0.1,0l0.1,0.1c1,1.2,1.9,2.5,2.7,3.8c1.8,2.9,2.8,5.5,2.8,7.5v77.6l-0.5,0c-18.5,0.4-30,3.5-30,6.2c0,3,13.8,6.3,33.5,6.3   s33.5-3.3,33.5-6.3c0-2.7-11.3-5.8-29.5-6.2l-0.5,0l0.5-71.8c0-4.9,1.1-9.6,3.3-14c0.4-0.7,0.8-1.4,1.2-2.1c0.3-0.5,0.7-1.1,1-1.6   l0.1-0.1l0.1-0.1c0.9-0.5,1.9-1,2.9-1.6l0.1-0.1c6.7-3.8,14-8.3,21.6-13.3c6.8-4.5,9.1-13.5,7-26.8c-2-12.7-7.6-26.4-11.9-35.6   c-1.7-3.7-3.1-6.2-3.5-7.1c-29.1,7.2-48.5,1.1-51.5,0C16.7,35.7,7.4,53.7,3.6,71c-3.4,15.6-1.4,26.1,5.9,31.1L9.7,102.3z"
   id="path279" />
	<circle
   class="st2"
   cx="26"
   cy="63.7"
   r="2.5"
   id="circle281" />
	<circle
   class="st7"
   cx="19"
   cy="86.8"
   r="2.5"
   id="circle283" />
	<circle
   class="st2"
   cx="32"
   cy="69.7"
   r="1.5"
   id="circle285" />
	<circle
   class="st7"
   cx="38"
   cy="98.3"
   r="1.5"
   id="circle287" />
	<circle
   class="st7"
   cx="27.5"
   cy="99.8"
   r="1.5"
   id="circle289" />
	<circle
   class="st2"
   cx="58"
   cy="49.7"
   r="1.5"
   id="circle291" />
	<path
   class="st5"
   d="M116.5,117.5c0,0,11,20.2,8.3,26.6S99,154.3,96.2,154.3s-35.8-7.4-35.8-7.4S9.9,123,24.6,111.1   s42.3,16.5,42.3,16.5h22.1l11.9-8.3L116.5,117.5z"
   id="path293" />
</g>
<g
   id="Camada_5"
   class="st0">
	<path
   class="st1"
   d="M257.7,435.6h-380.9c-17.7,0-32.1-14.4-32.1-32.1V22.6c0-17.7,14.4-32.1,32.1-32.1h380.9   c17.7,0,32.1,14.4,32.1,32.1v380.9C289.8,421.2,275.4,435.6,257.7,435.6z"
   id="path296" />
</g>
<g
   id="Camada_3"
   class="st0">
	<path
   class="st2"
   d="M27.7,277.9c-10.4,6.8-18.9,12-25.5,15.7h0c-9.6-0.7-19.2-0.4-28.7,0.8c-6.7-3.7-15.8-9.1-26.9-16.5   c-0.1-0.1-0.2-0.1-0.3-0.2v0c-10.2-7-10.5-21.9-7.2-37.2c8.5-0.9,22-0.5,40.1,5.9c21.5,7.7,43.9,3.3,57-0.6   C38.3,259.3,37,271.8,27.7,277.9z"
   id="path299" />
	<path
   class="st6"
   d="M-12.8,416c-19.7,0-40.5-3-40.5-8.5c0-5.3,18.5-8.1,35.8-8.5V309c0-2.1-1-4.9-3.1-8.2c-0.9-1.5-2-2.9-3-4.3   c-1-0.5-2-1.1-3.1-1.7c-8.4-4.7-17.5-10.2-27-16.5c-0.1-0.1-0.2-0.2-0.3-0.2l-0.2-0.2c-8.8-6.3-11.2-18.9-7.1-37.6   c4.8-22.2,17.4-45.4,17.5-45.6l0.2-0.5l0.5,0.2c0.2,0.1,23.8,9.2,60.7,0l0.4-0.1l0.2,0.4c0,0,1.9,3.5,4.4,8.8   c5.1,10.9,11.7,27.1,14.1,42.1c2.6,16.1-0.4,27.1-8.7,32.6l0,0c-9,5.9-17.6,11.2-25.5,15.7l-0.1,0.1c-1.1,0.6-2.2,1.2-3.2,1.8   c-0.4,0.5-0.7,1.1-1.1,1.7c-0.5,0.8-0.9,1.6-1.3,2.4c-2.5,4.9-3.7,10.4-3.8,15.9L-7.5,399c17.1,0.4,35.2,3.3,35.2,8.4   C27.7,413,6.8,416-12.8,416z M-53.1,277.4L-53.1,277.4c9.5,6.3,18.6,11.8,26.9,16.5c1.1,0.6,2.2,1.2,3.2,1.7l0.1,0.1l0.1,0.1   c1.1,1.4,2.2,3,3.2,4.5c2.2,3.5,3.2,6.4,3.2,8.8v91.1l-0.6,0c-21.8,0.4-35.3,4.1-35.3,7.3c0,3.5,16.2,7.3,39.4,7.3   s39.4-3.9,39.4-7.3c0-3.1-13.3-6.8-34.7-7.3l-0.6,0l0.5-84.3c0-5.7,1.3-11.3,3.9-16.4c0.4-0.9,0.9-1.7,1.4-2.5   c0.4-0.6,0.8-1.3,1.2-1.8l0.1-0.1l0.1-0.1c1.1-0.6,2.2-1.2,3.4-1.9l0.1-0.1c7.9-4.5,16.4-9.7,25.3-15.6c7.9-5.2,10.7-15.8,8.2-31.5   c-2.4-14.9-8.9-31-14-41.8c-2-4.3-3.6-7.3-4.2-8.4c-34.1,8.4-56.9,1.3-60.5,0c-1.8,3.3-12.7,24.5-17.2,44.9   c-4,18.3-1.7,30.6,6.9,36.5L-53.1,277.4z"
   id="path301" />
	<circle
   class="st2"
   cx="-34"
   cy="232.1"
   r="2.9"
   id="circle303" />
	<circle
   class="st7"
   cx="-42.2"
   cy="259.1"
   r="2.9"
   id="circle305" />
	<circle
   class="st2"
   cx="-26.9"
   cy="239.1"
   r="1.8"
   id="circle307" />
	<circle
   class="st7"
   cx="-19.9"
   cy="272.6"
   r="1.8"
   id="circle309" />
	<circle
   class="st7"
   cx="-32.2"
   cy="274.4"
   r="1.8"
   id="circle311" />
	<circle
   class="st2"
   cx="3.6"
   cy="215.6"
   r="1.8"
   id="circle313" />
</g>
<g
   id="Camada_2">
	<path
   class="st8"
   d="M268.9,132.2c-4.4-4.4-9.6-8-15.3-10.6V12.3c0-2.7-2.2-4.8-4.8-4.8l0,0h-27.1c-2.7,0-4.8,2.2-4.8,4.8l0,0   v107.2c-20.1,6.7-33.6,25.4-33.6,46.5v234.5c0,11.9,9.6,21.5,21.5,21.5h58c11.8,0,21.4-9.6,21.4-21.4v0V168.8   C284.1,155.1,278.6,141.9,268.9,132.2z"
   id="path316" />
	<rect
   x="182.3"
   y="198"
   class="st9"
   width="102.7"
   height="135.7"
   id="rect318" />
	<path
   class="st9"
   d="M256.5,35.6h-2.3v-2.7c0-2.8-2.2-5-5-5h0h-28.1c-2.8,0-5,2.3-5,5l0,0v2.7h-2.3v11.7h2.3v59.7h38.1V47.2h2.3   V35.6z"
   id="path320" />
</g>
<g
   id="Camada_4">
	<polygon
   class="st10"
   points="157.4,340.7 234.7,304.2 243.1,294.4 246.6,298.6 237.5,307 167.2,352  "
   id="polygon323" />
	<circle
   class="st9"
   cx="196.7"
   cy="385.7"
   r="23.2"
   id="circle325" />
	<circle
   class="st11"
   cx="196.7"
   cy="385.7"
   r="23.2"
   id="circle327" />
	<circle
   class="st9"
   cx="135.6"
   cy="401.2"
   r="23.2"
   id="circle329" />
	<circle
   class="st11"
   cx="135.6"
   cy="401.2"
   r="23.2"
   id="circle331" />
	<circle
   class="st9"
   cx="87.1"
   cy="383.6"
   r="23.2"
   id="circle333" />
	<circle
   class="st9"
   cx="95.2"
   cy="368.5"
   r="23.2"
   id="circle335" />
	<circle
   class="st9"
   cx="91"
   cy="348.1"
   r="19"
   id="circle337" />
	<circle
   class="st9"
   cx="106.4"
   cy="383.3"
   r="19"
   id="circle339" />
	<circle
   class="st11"
   cx="106.4"
   cy="383.3"
   r="19"
   id="circle341" />
	<circle
   class="st9"
   cx="119.8"
   cy="340.4"
   r="16.9"
   id="circle343" />
	<circle
   class="st11"
   cx="119.8"
   cy="340.4"
   r="16.9"
   id="circle345" />
	<circle
   class="st9"
   cx="25.6"
   cy="410.7"
   r="16.9"
   id="circle347" />
	<circle
   class="st9"
   cx="50.9"
   cy="414.2"
   r="16.9"
   id="circle349" />
	<circle
   class="st9"
   cx="50.9"
   cy="398.7"
   r="16.9"
   id="circle351" />
	<circle
   class="st11"
   cx="50.9"
   cy="398.7"
   r="16.9"
   id="circle353" />
	<circle
   class="st9"
   cx="25.6"
   cy="385.4"
   r="16.9"
   id="circle355" />
	<circle
   class="st9"
   cx="64.9"
   cy="360.1"
   r="16.9"
   id="circle357" />
	<circle
   class="st11"
   cx="64.9"
   cy="360.1"
   r="16.9"
   id="circle359" />
	<path
   class="st9"
   d="M99.7,380.1c-1.5,0-3,0.1-4.5,0.4c-2.7-10.1-13.1-16.2-23.2-13.5c-1.8,0.5-3.5,1.2-5,2.1   c-2.7-8.9-12.2-13.9-21.1-11.2S32,370.2,34.8,379.1c2.7,8.9,12.2,13.9,21.1,11.2c0.8-0.3,1.7-0.6,2.5-1c0.6,2.8,1.8,5.3,3.5,7.6   c-5.5,8.9-2.7,20.6,6.2,26.1c6,3.7,13.6,3.8,19.7,0.1c10.9,6.7,25.2,3.2,31.9-7.7c6.7-10.9,3.2-25.2-7.7-31.9   C108.2,381.3,104,380.1,99.7,380.1z"
   id="path361" />
	<circle
   class="st9"
   cx="80.8"
   cy="354.1"
   r="16.9"
   id="circle363" />
	<path
   class="st9"
   d="M219.9,330.9c-4.6,0-9.1,1.4-12.9,3.9c-4.1-7.2-11.8-11.7-20.1-11.7c-0.6,0-1.2,0-1.8,0.1   c8.6-9.5,7.8-24.2-1.7-32.8c-9.5-8.6-24.2-7.8-32.8,1.7c-2,2.2-3.5,4.8-4.6,7.6c-5.7-11.4-19.7-16.1-31.1-10.3   c-7.8,3.9-12.8,12-12.8,20.7c0,0.7,0,1.3,0.1,1.9c-10.4-1.4-19.9,5.9-21.4,16.2s5.9,19.9,16.2,21.4c2,0.3,4,0.2,6-0.1   c-9.5,8.6-10.2,23.3-1.6,32.8c8.6,9.5,23.3,10.2,32.8,1.6c0.8-0.7,1.5-1.5,2.2-2.3c3.1,7.7,10.1,13.3,18.3,14.4   c-4.8,11.9,1,25.4,12.8,30.2c11.9,4.8,25.4-1,30.2-12.8c4.8-11.9-1-25.4-12.8-30.2c-1.7-0.7-3.6-1.2-5.4-1.5   c1.7-4.1,2.1-8.6,1.3-13c6.5,1.7,13.4,0.6,18.9-3.1c6.4,11.1,20.5,15,31.7,8.6c11.1-6.4,15-20.5,8.6-31.7   C235.9,335.3,228.2,330.9,219.9,330.9z M113.3,344.2c3.1-3.2,5-7.4,5.4-11.8c2.2,0.7,4.5,1,6.7,1c0.3,0,0.6,0,1,0   c-0.9,3.8-0.8,7.8,0.3,11.6C122.3,343.4,117.7,343.1,113.3,344.2z"
   id="path365" />
</g>
</svg>
